<?xml version="1.0" standalone="no"?>
<!DOCTYPE svg PUBLIC "-//W3C//DTD SVG 20010904//EN"
 "http://www.w3.org/TR/2001/REC-SVG-20010904/DTD/svg10.dtd">
<svg version="1.0" xmlns="http://www.w3.org/2000/svg"
 width="1350.000000pt" height="737.000000pt" viewBox="0 0 1350.000000 737.000000"
 preserveAspectRatio="xMidYMid meet">

<g transform="translate(0.000000,737.000000) scale(0.100000,-0.100000)"
fill="#000000" stroke="none">
<path d="M0 3685 l0 -3685 6750 0 6750 0 0 3685 0 3685 -6750 0 -6750 0 0
-3685z m4035 2821 c109 -21 171 -49 236 -104 38 -32 99 -137 99 -169 0 -8 14
-31 30 -52 63 -78 43 -151 -42 -151 -35 0 -39 3 -53 38 -15 37 -15 37 -75 37
-65 0 -97 21 -120 76 -11 26 -17 29 -59 29 -147 0 -348 -108 -416 -224 -53
-90 -80 -280 -56 -389 5 -23 15 -76 21 -117 16 -100 71 -262 170 -505 100
-243 130 -354 137 -498 13 -266 -81 -422 -307 -508 -47 -18 -224 -18 -270 0
-65 25 -95 40 -140 71 -25 16 -51 30 -59 30 -27 0 -118 60 -170 111 -62 63
-116 166 -107 204 4 14 22 42 40 63 32 34 38 36 94 37 68 0 98 -20 133 -86 21
-41 85 -100 134 -123 43 -21 147 -21 191 0 52 25 101 86 120 151 28 97 3 298
-56 438 -5 11 -34 88 -65 170 -31 83 -60 159 -64 170 -33 76 -85 232 -101 305
-7 30 -16 65 -21 78 -5 13 -9 46 -9 75 0 29 -5 70 -10 91 -8 38 8 204 28 286
11 44 76 175 107 216 30 39 137 144 147 144 4 0 27 13 51 28 44 28 143 63 227
80 68 14 157 14 235 -2z m708 -47 c16 -20 18 -36 15 -96 l-3 -73 30 6 c21 4
35 1 43 -9 12 -14 11 -32 -18 -217 -5 -30 -13 -86 -19 -125 -6 -38 -20 -128
-31 -200 -70 -443 -88 -565 -83 -565 2 0 26 15 53 34 28 19 75 42 104 50 68
20 178 21 215 2 46 -24 96 -88 111 -141 7 -28 23 -61 36 -75 56 -60 67 -173
39 -395 -8 -66 -15 -121 -15 -122 0 -1 24 1 53 4 47 5 55 3 80 -22 41 -42 36
-73 -23 -133 -28 -28 -66 -59 -86 -68 -22 -10 -31 -20 -24 -24 18 -11 88 5
110 25 26 23 120 34 120 13 0 -20 -67 -81 -120 -110 -104 -55 -199 -57 -249
-4 -12 13 -39 26 -60 30 -21 3 -60 20 -87 38 -99 68 -123 186 -76 383 28 117
43 197 40 217 -3 20 -10 14 -53 -42 -76 -98 -92 -124 -149 -239 -50 -98 -109
-254 -136 -360 -17 -64 -50 -93 -103 -89 l-42 3 -3 46 -3 47 -48 -15 c-62 -20
-113 -11 -136 24 -14 21 -16 39 -11 92 13 144 45 397 75 611 5 36 17 117 26
180 27 196 47 330 65 440 4 30 13 87 19 125 11 72 24 152 40 253 5 31 14 86
20 122 5 36 15 94 21 130 6 36 15 92 19 125 11 77 19 95 50 122 29 26 57 32
125 28 38 -2 54 -8 69 -26z m3980 0 c16 -20 17 -33 11 -96 l-6 -74 25 6 c39
10 67 -10 62 -43 -2 -15 -9 -58 -15 -97 -6 -38 -15 -97 -21 -130 -5 -33 -18
-118 -29 -190 -11 -71 -25 -161 -31 -200 -6 -38 -15 -90 -19 -115 -32 -167
-22 -163 76 28 17 35 40 72 50 83 72 80 234 55 234 -37 0 -9 -13 -43 -30 -76
-35 -68 -37 -77 -12 -56 37 32 112 28 112 -7 0 -55 -182 -344 -283 -449 l-43
-46 41 -40 c23 -23 52 -60 64 -83 57 -113 110 -201 134 -227 25 -26 32 -28 80
-23 44 4 58 1 87 -19 29 -20 35 -30 37 -63 3 -44 -7 -60 -51 -89 -38 -24 -18
-38 41 -30 77 11 117 -13 77 -47 -20 -16 -97 -38 -136 -39 -36 0 -113 30 -162
63 -21 15 -52 29 -70 32 -48 9 -120 68 -165 134 -23 33 -41 62 -41 65 0 3 -13
34 -29 68 -31 67 -95 143 -110 133 -6 -3 -13 -27 -16 -53 -25 -204 -37 -302
-56 -460 -14 -118 -24 -132 -96 -132 -46 0 -47 2 -43 63 2 31 2 31 -63 14
l-47 -12 65 -65 c36 -35 65 -68 65 -72 0 -4 17 -35 37 -70 47 -78 70 -165 79
-288 12 -190 9 -283 -16 -425 -6 -33 -14 -80 -19 -105 -9 -53 -73 -217 -108
-277 -23 -39 -102 -119 -147 -148 -80 -52 -222 -64 -296 -26 -155 80 -234 266
-232 547 2 283 66 601 151 752 43 75 47 92 31 121 -14 27 5 45 89 81 63 27 83
31 130 27 31 -2 63 -7 71 -11 13 -5 15 7 15 76 1 74 12 183 46 448 21 169 29
226 59 430 24 167 29 198 39 265 7 39 16 99 22 135 6 36 14 90 19 120 5 30 14
84 20 120 5 36 17 110 26 165 8 55 19 127 24 160 5 33 12 80 15 105 11 88 28
150 46 166 53 48 177 56 212 13z m1672 -863 c53 -22 69 -55 61 -126 l-7 -60
29 0 c56 0 63 -34 37 -175 -9 -44 -19 -102 -25 -130 -5 -27 -16 -90 -25 -140
-9 -49 -29 -164 -46 -255 -60 -326 -68 -375 -76 -442 l-6 -48 77 0 c82 0 128
-15 146 -49 15 -30 12 -107 -5 -121 -26 -22 -17 -30 34 -30 50 0 61 -9 61 -50
0 -34 -38 -50 -122 -50 -80 0 -212 -16 -238 -30 -8 -4 -18 -20 -22 -36 -4 -16
-17 -69 -29 -119 -62 -255 -171 -484 -274 -577 -90 -82 -241 -90 -311 -17 -15
16 -43 32 -63 35 -51 9 -80 27 -122 71 -99 103 -111 251 -38 443 74 193 222
330 472 435 43 18 57 29 57 44 0 26 1 27 -57 -8 -26 -16 -72 -35 -101 -41 -45
-10 -60 -10 -96 4 -24 9 -53 28 -66 41 -13 14 -33 25 -44 26 -70 2 -137 56
-174 139 -58 130 -32 477 58 770 4 14 13 45 20 70 6 25 16 53 21 62 5 10 9 25
9 33 0 36 41 95 80 115 62 31 105 25 158 -23 18 -16 22 -31 22 -74 0 -30 -5
-63 -10 -73 -9 -18 -8 -19 19 -14 38 8 71 -11 71 -40 0 -12 -9 -49 -21 -82
-22 -65 -90 -333 -108 -430 -6 -33 -11 -78 -11 -100 l1 -39 25 30 c125 148
258 432 414 880 48 139 53 148 101 172 51 26 77 28 124 9z m-4000 -180 c55
-23 69 -54 58 -129 -8 -59 -8 -64 9 -59 26 6 65 -6 71 -22 3 -8 -1 -39 -9 -69
-8 -30 -37 -167 -64 -304 -27 -136 -54 -268 -59 -293 l-9 -45 20 25 c11 13 37
54 58 90 60 103 99 126 163 95 54 -25 82 -71 81 -132 0 -44 3 -53 17 -53 25 0
59 -48 59 -83 0 -37 -77 -144 -161 -222 -130 -119 -252 -143 -331 -64 -16 16
-38 29 -48 29 -30 0 -70 18 -111 51 l-39 31 -52 -46 c-109 -96 -228 -111 -308
-40 -14 12 -52 29 -85 39 -78 22 -138 83 -162 164 -43 148 27 459 141 624 14
21 26 41 26 46 0 4 9 16 20 26 11 10 20 24 20 32 0 7 37 50 83 96 118 118 203
159 345 162 70 2 86 5 106 24 42 39 105 50 161 27z m1668 -285 c18 -18 21 -31
19 -96 -2 -75 -2 -75 22 -69 17 4 30 0 44 -14 17 -17 18 -27 12 -73 -5 -30
-14 -96 -20 -148 -32 -252 -124 -430 -253 -494 -98 -48 -209 -32 -304 43 -40
31 -63 25 -117 -30 -26 -28 -70 -62 -97 -75 -86 -44 -230 -29 -278 29 -7 8
-38 22 -69 31 -202 59 -256 252 -167 595 9 36 20 74 25 85 4 11 18 46 30 78
31 79 64 102 151 102 101 0 127 -42 90 -147 l-19 -56 52 5 c29 3 56 2 59 -3 2
-5 -11 -56 -29 -114 -42 -128 -66 -245 -62 -295 l3 -38 33 34 c42 42 83 123
111 215 26 88 48 118 106 139 55 22 107 13 142 -21 23 -23 25 -31 19 -77 -3
-29 -9 -62 -12 -75 -6 -21 -4 -22 33 -16 53 8 65 -7 51 -69 -11 -54 -6 -77 17
-77 28 0 61 47 84 122 13 40 27 82 31 93 13 34 28 107 40 190 25 178 28 188
61 217 51 43 153 48 192 9z m-618 -1114 l27 -22 -42 -69 c-47 -77 -114 -244
-140 -351 -10 -38 -34 -130 -54 -203 -20 -74 -36 -141 -36 -151 0 -27 166
-255 239 -329 80 -81 170 -133 195 -113 9 7 16 20 16 27 0 37 106 24 156 -19
l26 -23 -31 -44 c-40 -59 -74 -90 -105 -96 -13 -2 -35 -8 -47 -12 -72 -27
-218 59 -322 189 -79 99 -129 169 -152 211 -10 21 -21 35 -24 33 -2 -3 -12
-28 -21 -57 -16 -48 -34 -118 -99 -384 -11 -45 -24 -90 -29 -100 -19 -38 -40
-90 -57 -139 -10 -27 -22 -54 -26 -59 -5 -6 -9 -18 -9 -27 0 -10 -10 -30 -22
-44 -19 -21 -28 -25 -56 -19 -18 4 -51 23 -75 44 -39 35 -41 39 -26 56 8 11
30 51 49 89 18 39 36 78 41 87 15 29 97 284 144 443 14 50 39 126 56 171 16
45 29 86 29 92 0 7 -15 35 -33 64 -19 29 -44 76 -57 103 -13 28 -31 61 -40 75
-10 14 -41 78 -70 143 -49 111 -51 119 -35 137 40 44 49 36 136 -114 46 -77
98 -163 116 -189 l32 -48 7 28 c14 62 43 161 59 203 9 25 25 70 35 100 39 120
173 339 207 340 7 0 24 -10 38 -23z m-1214 -370 c31 -24 29 -44 -7 -82 -108
-115 -157 -381 -127 -690 24 -247 76 -418 150 -492 52 -53 89 -57 128 -15 38
40 53 72 75 164 40 167 34 368 -19 630 -16 76 -93 213 -131 233 -52 27 -53
111 -2 173 49 62 53 62 121 -4 61 -60 121 -148 146 -214 7 -19 19 -53 28 -75
16 -45 34 -108 48 -175 16 -77 27 -331 17 -405 -5 -38 -10 -86 -12 -105 -9
-83 -30 -150 -82 -254 -64 -129 -135 -174 -256 -163 -149 13 -270 179 -329
451 -28 126 -29 135 -29 276 -2 181 8 280 40 411 33 136 87 242 156 307 49 45
60 49 85 29z m-599 -19 c15 -12 12 -28 -28 -173 -24 -88 -57 -207 -74 -265
-18 -58 -38 -132 -46 -165 -16 -63 -102 -340 -136 -438 l-21 -57 32 -51 c17
-28 31 -54 31 -58 0 -11 107 -160 144 -199 55 -59 152 -125 207 -142 23 -7 32
-3 58 24 17 18 31 37 31 44 0 6 10 18 23 26 28 19 83 8 132 -26 38 -25 43 -39
20 -58 -8 -7 -15 -19 -15 -27 0 -8 -23 -38 -50 -68 -37 -38 -67 -59 -109 -75
-54 -20 -64 -21 -122 -9 -77 15 -114 35 -197 107 -78 68 -152 162 -229 291
l-20 33 -21 -58 c-11 -33 -43 -120 -71 -194 -28 -74 -59 -157 -70 -185 -10
-27 -35 -95 -55 -150 -21 -55 -52 -130 -70 -166 -19 -36 -55 -119 -81 -185
-26 -65 -54 -127 -63 -136 -20 -24 -69 -23 -110 2 -41 25 -49 46 -28 69 9 10
16 23 16 30 0 7 9 30 19 50 11 20 32 63 46 96 14 33 32 74 40 90 37 83 125
287 125 291 0 6 61 156 85 209 7 17 30 75 50 130 21 55 51 135 68 179 17 43
30 83 30 90 0 6 -37 85 -81 176 -95 194 -206 508 -217 615 -1 17 -8 57 -15 89
-12 57 -11 60 11 78 14 10 37 17 53 16 28 -3 30 -7 51 -93 31 -125 91 -310
120 -370 13 -27 44 -97 69 -155 57 -134 70 -160 77 -160 3 0 16 35 29 78 31
108 89 283 100 307 6 11 21 56 34 100 13 44 41 125 60 180 20 55 48 136 62
180 15 44 31 83 38 87 17 12 50 9 68 -4z"/>
<path d="M3621 6170 c-45 -36 -78 -76 -69 -85 2 -2 31 26 66 61 35 35 61 64
59 64 -3 0 -28 -18 -56 -40z"/>
<path d="M3691 4176 c-23 -24 -70 -60 -104 -80 -63 -37 -59 -48 7 -21 45 19
112 79 132 117 8 15 13 28 11 28 -1 0 -22 -20 -46 -44z"/>
<path d="M4796 4978 c-79 -79 -199 -268 -182 -285 3 -4 6 -1 6 5 0 26 126 195
194 260 58 55 71 72 55 72 -11 0 -43 -23 -73 -52z"/>
<path d="M5021 4794 c0 -11 3 -14 6 -6 3 7 2 16 -1 19 -3 4 -6 -2 -5 -13z"/>
<path d="M4393 4738 c0 -13 -5 -74 -12 -137 -6 -62 -10 -116 -7 -118 3 -3 11
17 19 44 8 26 29 83 46 127 18 43 30 80 29 81 -2 1 -13 7 -25 14 -34 17 -51
14 -50 -11z"/>
<path d="M5002 4690 c0 -14 2 -19 5 -12 2 6 2 18 0 25 -3 6 -5 1 -5 -13z"/>
<path d="M8967 5403 c-4 -3 -7 -11 -7 -17 0 -6 5 -5 12 2 6 6 9 14 7 17 -3 3
-9 2 -12 -2z"/>
<path d="M8896 5284 c-32 -47 -91 -124 -132 -170 -62 -70 -72 -85 -58 -91 29
-11 109 87 205 253 27 48 48 88 46 90 -2 3 -30 -35 -61 -82z"/>
<path d="M8074 4049 c-4 -7 -24 -9 -55 -6 l-47 6 -26 -72 c-46 -129 -62 -206
-81 -382 -3 -27 -8 -64 -10 -81 -8 -51 13 -337 31 -416 27 -119 85 -208 136
-208 43 0 114 30 146 61 145 142 209 562 131 866 -21 84 -58 160 -91 188 -55
48 -118 69 -134 44z"/>
<path d="M7831 3674 c0 -11 3 -14 6 -6 3 7 2 16 -1 19 -3 4 -6 -2 -5 -13z"/>
<path d="M7816 3609 c-3 -17 -5 -43 -5 -58 1 -14 5 -2 10 28 10 58 6 83 -5 30z"/>
<path d="M10281 5322 c0 -12 -5 -30 -10 -40 -19 -37 -133 -334 -129 -336 2 -1
13 -7 25 -13 13 -7 29 -13 38 -13 15 0 18 9 30 85 4 22 11 60 15 85 5 25 11
65 15 90 3 25 11 61 16 81 6 19 9 46 6 60 -4 23 -4 23 -6 1z"/>
<path d="M9894 4319 c-16 -17 -41 -38 -56 -47 -16 -9 -28 -20 -28 -25 0 -16
62 28 92 66 36 45 32 48 -8 6z"/>
<path d="M9838 3845 c-41 -32 -91 -87 -113 -125 -5 -8 18 9 51 39 32 30 73 63
91 73 34 20 51 48 29 48 -7 0 -33 -16 -58 -35z"/>
<path d="M9812 3612 c-34 -52 -85 -162 -79 -169 9 -9 56 66 82 132 15 39 29
73 32 78 2 4 2 7 0 7 -3 0 -19 -21 -35 -48z"/>
<path d="M9967 3370 c-21 -32 -60 -79 -87 -104 -52 -48 -49 -60 5 -26 34 21
66 65 104 139 32 63 21 59 -22 -9z"/>
<path d="M6029 5106 c-43 -32 -129 -123 -129 -138 0 -4 23 18 52 48 29 30 74
69 100 86 26 17 48 33 48 35 0 11 -32 -2 -71 -31z"/>
<path d="M6241 5048 c-38 -97 -77 -193 -102 -247 -23 -50 -27 -66 -17 -73 23
-15 59 -21 69 -11 5 5 20 69 34 143 14 74 29 152 34 173 10 41 -4 52 -18 15z"/>
<path d="M6004 4888 c-63 -86 -176 -319 -162 -333 9 -9 92 130 145 245 30 63
59 123 64 133 19 36 -3 15 -47 -45z"/>
<path d="M6630 4416 c-11 -19 -57 -69 -102 -110 -66 -62 -77 -76 -58 -76 28 0
125 100 163 169 32 58 30 69 -3 17z"/>
<path d="M5962 4333 c-72 -73 -78 -82 -45 -64 40 20 71 50 118 114 43 59 17
41 -73 -50z"/>
<path d="M7411 4614 c0 -11 3 -14 6 -6 3 7 2 16 -1 19 -3 4 -6 -2 -5 -13z"/>
<path d="M7875 4394 c-27 -29 -63 -60 -80 -69 l-30 -15 35 0 c42 0 75 20 95
61 16 30 36 80 32 78 -1 0 -24 -25 -52 -55z"/>
<path d="M7350 4324 c-25 -25 -61 -53 -80 -64 -38 -21 -20 -27 27 -9 33 12
113 87 113 106 0 21 -12 14 -60 -33z"/>
<path d="M7295 3729 c-4 -6 -5 -12 -2 -15 2 -3 7 2 10 11 7 17 1 20 -8 4z"/>
<path d="M7269 3673 c-5 -14 -8 -30 -6 -36 1 -5 8 7 14 27 13 42 7 49 -8 9z"/>
<path d="M6980 3473 c0 -6 8 -17 18 -24 16 -13 16 -13 2 6 -8 11 -16 22 -17
24 -2 2 -3 0 -3 -6z"/>
<path d="M6052 3190 c0 -14 2 -19 5 -12 2 6 2 18 0 25 -3 6 -5 1 -5 -13z"/>
<path d="M6040 3118 c-1 -13 -3 -40 -6 -60 -3 -21 -2 -38 3 -38 4 0 10 27 11
60 2 33 1 60 -2 60 -3 0 -6 -10 -6 -22z"/>
<path d="M5471 3149 c-6 -18 -11 -37 -10 -43 0 -6 7 7 15 28 8 22 12 41 10 43
-2 2 -9 -10 -15 -28z"/>
<path d="M5011 3104 c0 -11 3 -14 6 -6 3 7 2 16 -1 19 -3 4 -6 -2 -5 -13z"/>
<path d="M5020 3066 c0 -8 4 -17 9 -20 5 -4 7 3 4 14 -6 23 -13 26 -13 6z"/>
</g>
</svg>
