<?xml version="1.0" standalone="no"?>
<!DOCTYPE svg PUBLIC "-//W3C//DTD SVG 20010904//EN"
 "http://www.w3.org/TR/2001/REC-SVG-20010904/DTD/svg10.dtd">
<svg version="1.0" xmlns="http://www.w3.org/2000/svg"
 width="1367.000000pt" height="758.000000pt" viewBox="0 0 1367.000000 758.000000"
 preserveAspectRatio="xMidYMid meet">

<g transform="translate(0.000000,758.000000) scale(0.100000,-0.100000)"
fill="#ffff" stroke="#4B9CD3">
<path d="M0 3790 l0 -3790 6835 0 6835 0 0 3790 0 3790 -6835 0 -6835 0 0
-3790z m4342 2959 c119 -24 184 -55 251 -118 34 -32 87 -124 87 -152 0 -5 16
-32 35 -60 43 -63 45 -100 8 -129 -41 -32 -83 -24 -107 21 -19 34 -22 36 -70
36 -61 -1 -97 20 -121 69 -15 32 -18 34 -69 34 -138 0 -338 -105 -405 -213
-27 -44 -47 -108 -60 -199 -10 -63 -9 -98 3 -195 27 -202 59 -307 186 -618
106 -258 140 -388 140 -539 0 -173 -37 -272 -134 -364 -152 -144 -398 -164
-561 -47 -16 12 -46 27 -65 35 -74 28 -140 73 -192 128 -96 105 -119 176 -76
238 30 43 54 56 116 57 57 2 90 -20 122 -83 57 -111 211 -178 313 -135 100 42
147 126 147 265 0 92 -7 130 -45 260 -23 76 -98 281 -116 312 -5 10 -9 22 -9
28 0 6 -9 29 -19 53 -29 62 -97 271 -115 352 -37 164 -39 363 -5 489 22 82 93
207 156 276 146 158 399 242 605 199z m705 -45 c24 -24 25 -30 21 -99 l-5 -74
29 6 c41 8 60 -12 53 -56 -3 -20 -10 -65 -15 -101 -5 -36 -19 -121 -30 -190
-40 -257 -82 -527 -90 -585 -5 -33 -11 -75 -14 -92 -17 -95 -17 -96 0 -82 32
27 115 68 175 87 50 17 141 15 175 -3 58 -29 109 -91 124 -147 7 -29 21 -59
31 -66 31 -21 59 -115 59 -195 0 -81 -26 -312 -36 -329 -5 -8 -1 -9 12 -4 48
19 79 17 114 -6 54 -37 53 -71 -8 -134 -26 -29 -68 -62 -93 -75 l-44 -24 37
-3 c26 -2 53 6 94 28 58 31 113 37 121 14 5 -16 -62 -78 -116 -107 -106 -57
-197 -59 -250 -7 -16 17 -39 30 -50 30 -30 0 -105 37 -129 63 -52 56 -66 98
-66 194 0 51 6 109 12 130 16 55 39 160 47 217 6 47 6 49 -11 35 -41 -33 -139
-181 -190 -283 -29 -61 -76 -178 -103 -260 -27 -81 -57 -157 -67 -167 -12 -14
-31 -19 -66 -19 l-48 0 0 46 c0 44 -1 46 -22 39 -13 -4 -46 -10 -75 -12 -46
-4 -55 -2 -79 22 -25 25 -26 30 -21 93 6 71 19 183 37 322 6 47 15 117 20 155
5 39 13 99 19 135 10 65 15 105 46 320 9 63 21 144 27 180 5 36 13 90 18 120
23 150 37 239 59 378 5 31 14 86 20 122 5 36 15 94 21 130 6 36 15 92 19 125
11 77 19 95 50 122 26 23 48 29 119 32 34 1 48 -4 69 -25z m3971 2 c14 -13 16
-32 14 -96 l-2 -79 33 6 c51 8 57 -8 41 -107 -7 -47 -18 -114 -23 -150 -10
-64 -42 -268 -60 -385 -10 -62 -26 -161 -36 -230 -6 -37 -5 -39 9 -19 8 11 38
65 66 120 28 54 62 109 76 121 52 47 145 50 197 5 25 -22 22 -83 -8 -136 -32
-57 -31 -60 5 -41 38 20 74 19 91 -1 12 -14 7 -30 -36 -111 -68 -131 -158
-265 -226 -337 l-58 -61 49 -50 c29 -31 70 -93 105 -160 75 -144 98 -168 148
-162 129 17 202 -101 101 -164 -47 -29 -34 -42 35 -34 42 5 61 2 76 -9 19 -14
19 -15 2 -34 -22 -25 -114 -46 -167 -39 -22 3 -57 14 -78 25 -64 33 -115 59
-165 83 -46 21 -66 39 -117 98 -11 14 -42 70 -69 125 -48 99 -112 179 -125
157 -4 -6 -11 -45 -16 -88 -5 -43 -16 -130 -24 -193 -8 -63 -20 -162 -26 -220
-15 -126 -24 -140 -91 -140 -53 0 -59 7 -51 59 5 31 3 34 -14 26 -10 -4 -36
-11 -58 -14 l-39 -6 57 -55 c66 -64 146 -199 169 -285 15 -56 40 -354 31 -379
-2 -6 -8 -56 -14 -111 -20 -189 -63 -339 -136 -468 -62 -112 -209 -200 -333
-200 -95 0 -197 60 -251 148 -22 37 -64 160 -80 235 -11 54 -15 333 -5 350 3
5 10 57 16 116 8 92 31 199 70 334 6 19 31 77 57 127 42 83 45 95 35 122 -13
36 -5 44 77 85 73 36 135 43 195 23 40 -14 45 -14 35 -2 -17 21 -5 172 40 515
22 168 32 236 40 295 5 33 14 96 20 140 20 138 29 198 39 260 6 33 15 89 20
125 6 36 15 92 20 125 5 33 22 137 36 230 14 94 31 199 37 235 5 36 14 92 18
125 5 33 12 73 15 88 8 29 55 71 90 80 40 11 126 1 143 -17z m1693 -879 c34
-23 34 -23 34 -100 l0 -77 31 0 c58 0 61 -19 33 -165 -5 -27 -25 -138 -44
-245 -19 -107 -39 -217 -44 -245 -5 -27 -14 -79 -21 -115 -6 -36 -15 -85 -20
-110 -5 -25 -14 -76 -20 -115 -7 -38 -16 -89 -21 -112 -16 -74 -17 -73 61 -73
122 0 178 -41 167 -121 -3 -22 -13 -49 -23 -60 -17 -18 -16 -19 29 -19 54 0
81 -21 71 -54 -11 -33 -35 -45 -87 -46 -51 0 -227 -17 -264 -25 -15 -4 -25
-15 -29 -33 -52 -230 -99 -373 -170 -512 -61 -119 -116 -189 -179 -226 -85
-49 -209 -41 -269 18 -19 19 -44 32 -67 35 -55 8 -129 68 -159 130 -37 74 -55
163 -42 204 6 19 15 57 21 84 26 117 105 258 187 337 79 74 248 174 327 192
26 6 57 49 45 62 -4 3 -24 -6 -46 -21 -45 -30 -121 -55 -164 -55 -34 0 -103
33 -111 54 -3 8 -32 20 -64 27 -74 16 -131 70 -163 156 -20 53 -21 71 -17 223
6 198 16 260 82 520 9 36 20 73 26 82 5 10 9 27 9 37 0 11 5 23 10 26 6 3 10
15 10 26 0 36 39 97 71 113 46 23 100 20 140 -7 42 -28 56 -72 42 -132 l-10
-45 38 0 c62 0 67 -22 31 -138 -70 -223 -112 -411 -112 -494 l0 -53 21 25 c52
64 126 186 184 305 75 153 105 221 105 235 0 6 5 18 10 28 12 20 60 152 96
262 47 143 71 189 113 217 45 31 107 31 152 0z m-3975 -188 c25 -23 26 -28 20
-97 -5 -69 -5 -73 13 -67 25 8 71 -14 71 -34 0 -9 -9 -54 -20 -101 -31 -132
-120 -583 -116 -587 3 -4 64 87 86 130 46 92 131 104 198 29 28 -32 36 -62 29
-111 -4 -32 -2 -38 12 -34 25 7 65 -42 65 -80 0 -65 -161 -249 -264 -301 -93
-48 -155 -46 -220 9 -25 21 -53 35 -69 35 -26 0 -95 39 -118 68 -10 12 -19 8
-60 -28 -61 -54 -140 -90 -199 -90 -46 0 -110 26 -133 54 -8 9 -22 16 -31 16
-67 0 -175 92 -198 168 -14 46 -16 236 -3 278 5 16 14 49 21 74 32 115 76 210
157 334 138 212 291 311 470 305 55 -2 67 1 92 23 36 33 53 37 119 34 39 -2
59 -9 78 -27z m1597 -244 c40 -8 57 -54 50 -131 l-5 -61 28 4 c54 7 61 -8 50
-112 -40 -394 -143 -587 -338 -635 -62 -16 -132 0 -201 47 -78 53 -95 53 -139
0 -21 -25 -62 -59 -91 -76 -48 -27 -64 -31 -130 -31 -81 0 -116 10 -157 45
-14 12 -51 30 -83 40 -54 16 -104 48 -134 85 -42 51 -81 207 -69 271 3 19 9
54 12 79 7 61 33 163 67 265 42 128 73 155 173 155 51 0 64 -4 83 -24 19 -20
22 -33 18 -68 -2 -24 -9 -58 -15 -77 l-11 -33 42 6 c69 10 74 0 44 -85 -44
-127 -77 -272 -77 -338 l0 -35 36 35 c42 40 73 98 104 194 13 39 30 84 38 102
33 67 142 94 211 52 l34 -20 -6 -62 c-4 -34 -9 -71 -12 -82 -5 -18 -1 -20 42
-20 54 0 53 2 38 -87 -7 -46 -6 -48 17 -48 44 0 66 39 115 200 6 19 16 60 23
90 6 30 16 71 21 91 5 20 9 55 9 78 0 65 19 127 48 154 24 23 101 47 127 41 6
-1 23 -5 38 -9z m-589 -1126 c14 -11 26 -24 26 -29 0 -5 -14 -30 -31 -56 -48
-69 -123 -266 -165 -427 -20 -78 -45 -176 -56 -219 l-20 -76 83 -119 c141
-199 310 -350 353 -314 8 7 18 21 21 32 5 14 16 19 39 19 58 0 144 -47 132
-72 -36 -71 -90 -121 -145 -137 -146 -42 -289 68 -491 374 l-36 54 -18 -51
c-9 -27 -19 -57 -21 -67 -2 -9 -17 -68 -33 -131 -16 -63 -35 -142 -42 -175 -7
-33 -28 -96 -45 -140 -54 -133 -83 -209 -89 -231 -4 -11 -17 -27 -31 -34 -20
-11 -29 -10 -67 9 -49 26 -98 73 -81 78 6 2 28 39 48 81 20 42 43 90 51 105 8
16 14 36 14 46 0 9 4 21 8 26 9 11 34 87 82 245 47 153 79 256 105 330 l23 66
-21 28 c-23 32 -96 168 -156 291 -92 189 -91 187 -38 210 28 12 32 11 42 -9
29 -52 58 -103 75 -131 11 -16 29 -48 41 -70 32 -58 90 -145 98 -145 3 0 12
26 19 58 13 58 44 153 67 207 8 17 17 44 21 60 21 87 172 335 204 335 4 0 19
-9 34 -21z m-1206 -375 c31 -21 28 -40 -14 -87 -68 -75 -107 -198 -125 -401
-28 -300 53 -686 164 -781 87 -74 143 -27 192 160 32 122 36 289 12 435 -9 52
-18 113 -22 135 -14 88 -18 102 -48 164 -18 35 -56 89 -85 119 -50 51 -53 58
-47 91 10 51 40 105 71 125 l26 18 69 -68 c38 -38 69 -72 69 -76 0 -5 16 -31
35 -59 19 -28 35 -58 35 -66 0 -8 7 -28 17 -46 17 -33 50 -150 57 -202 44
-310 22 -558 -63 -741 -65 -139 -137 -194 -251 -194 -50 0 -153 53 -190 98
-55 65 -118 209 -151 342 -30 120 -32 133 -31 325 0 174 4 216 26 320 13 66
31 138 39 160 27 74 96 179 140 212 49 38 46 37 75 17z m-603 -18 c18 -13 16
-20 -32 -202 -79 -294 -119 -431 -195 -669 l-70 -220 37 -70 c45 -82 98 -158
161 -232 51 -58 186 -153 219 -153 25 0 67 36 82 72 7 16 23 30 38 34 29 7 96
-15 135 -45 23 -18 23 -21 8 -38 -8 -10 -18 -27 -22 -38 -10 -35 -92 -117
-132 -133 -24 -10 -68 -16 -114 -16 -94 0 -146 26 -247 122 -86 82 -130 139
-211 272 -12 19 -22 33 -22 30 0 -3 -9 -30 -21 -60 -11 -30 -36 -95 -54 -145
-18 -49 -45 -121 -60 -160 -14 -38 -37 -99 -50 -135 -50 -139 -74 -197 -105
-255 -17 -33 -43 -91 -57 -130 -14 -38 -32 -79 -39 -90 -8 -11 -14 -29 -14
-41 0 -25 -43 -74 -65 -74 -25 0 -79 26 -98 47 -16 19 -16 23 -2 49 18 36 120
262 160 359 7 17 25 57 40 90 15 33 35 83 45 110 10 28 29 75 42 105 13 30 32
73 40 95 58 145 88 224 88 232 0 5 13 40 30 78 16 39 30 78 30 87 0 10 -36 89
-79 177 -43 88 -91 197 -106 243 -15 45 -36 106 -46 133 -22 59 -61 199 -64
235 -1 14 -8 54 -14 89 -12 63 -12 65 11 82 12 10 35 17 50 17 24 -1 30 -7 37
-37 6 -20 17 -63 26 -96 9 -33 21 -76 26 -95 36 -136 216 -557 231 -542 5 5
22 53 37 108 16 54 44 140 61 189 18 50 42 124 56 165 13 41 42 127 64 190 23
63 53 150 67 192 24 71 34 83 69 87 5 0 19 -5 29 -13z m-3926 -2021 c2 -2 -11
-63 -28 -135 -17 -73 -31 -138 -31 -145 0 -14 121 -48 131 -37 4 4 17 53 29
110 l23 103 31 -7 c17 -3 35 -10 40 -15 5 -5 -1 -51 -16 -113 l-25 -105 61
-14 c43 -10 63 -11 67 -3 4 6 16 54 28 106 43 185 37 173 79 165 20 -4 38 -8
40 -9 1 -2 -13 -68 -31 -147 l-34 -144 -38 0 c-35 0 -39 -3 -47 -32 l-8 -31
-58 13 c-31 8 -111 27 -177 43 l-120 28 3 37 c2 33 0 37 -25 43 -15 4 -31 8
-34 10 -4 2 7 59 22 126 16 68 31 134 34 147 5 21 10 22 43 16 20 -4 39 -8 41
-10z m10080 -22 c28 -109 41 -162 41 -171 0 -12 -67 -28 -77 -19 -5 6 -52 191
-53 209 0 8 25 15 57 17 18 1 24 -7 32 -36z m-115 -155 c20 -90 40 -172 42
-184 5 -18 -1 -23 -35 -31 l-41 -11 -6 35 c-6 34 -8 35 -44 29 -40 -6 -50 3
-50 46 0 18 -4 19 -40 13 -38 -6 -39 -6 -48 27 -7 27 -13 32 -33 30 -13 -2
-27 -7 -32 -11 -4 -4 4 -54 18 -111 13 -57 23 -105 21 -107 -1 -2 -20 -4 -41
-6 l-38 -2 -42 178 -42 179 24 9 c46 17 60 11 67 -26 6 -32 9 -35 34 -29 15 4
31 7 36 8 5 0 13 -14 18 -32 9 -33 10 -33 48 -27 37 6 40 5 40 -17 0 -37 14
-50 43 -42 32 7 32 10 7 119 -28 121 -31 113 46 124 6 0 27 -70 48 -161z
m-9398 49 c3 -2 -2 -35 -10 -73 -8 -38 -14 -70 -12 -71 7 -7 198 -43 205 -39
5 3 14 35 21 72 l13 66 36 -7 c20 -4 38 -9 40 -11 5 -5 -66 -355 -74 -362 -9
-9 -75 9 -75 21 1 7 7 40 14 73 l13 62 -99 21 c-54 12 -103 21 -107 21 -5 0
-15 -32 -22 -71 l-13 -71 -40 6 c-22 4 -41 8 -42 9 -2 2 55 277 71 346 5 21
10 23 42 18 19 -4 37 -8 39 -10z m8928 -4 c7 -25 56 -262 56 -272 0 -5 -16
-12 -35 -15 -34 -7 -35 -8 -29 -45 l6 -38 -107 -21 c-59 -12 -111 -20 -115
-17 -4 2 -10 18 -13 35 -6 27 -10 29 -43 27 l-37 -2 -28 130 c-16 72 -28 137
-29 146 0 11 12 18 37 22 20 4 38 5 40 3 2 -1 15 -63 30 -137 14 -74 29 -137
33 -142 5 -6 198 27 207 36 2 2 -10 67 -27 145 -16 78 -30 144 -30 146 0 5 32
12 62 15 9 0 19 -7 22 -16z m-8369 -106 c164 -31 170 -33 173 -57 5 -55 -4
-57 -159 -28 -79 15 -144 26 -145 25 0 -1 -4 -16 -7 -34 -6 -32 -6 -32 48 -42
30 -6 80 -16 111 -22 l56 -11 -7 -36 c-4 -21 -8 -38 -9 -39 -1 -2 -48 6 -105
17 -56 11 -106 18 -111 15 -4 -3 -10 -18 -12 -34 -4 -26 -1 -30 26 -35 17 -3
84 -15 148 -27 l116 -21 -5 -36 c-3 -21 -7 -38 -8 -40 -4 -5 -364 64 -371 70
-4 5 50 322 61 356 6 16 2 16 200 -21z m7935 16 c0 -10 3 -27 6 -39 5 -20 -2
-22 -118 -43 -179 -33 -168 -29 -168 -61 0 -16 4 -31 9 -34 4 -3 55 3 112 14
57 11 105 20 106 20 5 0 15 -71 11 -75 -3 -3 -202 -45 -214 -45 -1 0 4 -32 12
-72 8 -39 13 -73 11 -74 -1 -1 -18 -5 -39 -9 -30 -6 -37 -4 -42 12 -13 45 -66
347 -61 352 6 5 325 68 358 70 10 1 17 -6 17 -16z m1083 -60 c3 -5 7 -21 8
-37 4 -26 0 -31 -30 -38 -39 -11 -46 -5 -56 39 -5 27 -3 32 17 36 39 7 57 7
61 0z m-8623 -28 c80 -14 146 -25 146 -25 1 0 1 -17 0 -37 -1 -36 1 -38 32
-41 33 -3 33 -4 27 -45 -17 -111 -18 -112 -57 -109 -30 3 -36 0 -42 -20 -11
-41 -7 -48 24 -48 34 0 45 -17 36 -56 -6 -22 -11 -25 -44 -22 -36 3 -37 4 -35
40 2 27 -2 38 -15 42 -15 4 -141 24 -182 29 -10 1 -17 -10 -20 -33 -5 -33 -7
-35 -40 -32 -19 2 -38 6 -41 8 -7 4 53 374 61 374 3 0 70 -11 150 -25z m6884
-47 c3 -17 3 -35 -1 -39 -5 -3 -44 -12 -88 -18 -44 -7 -107 -17 -140 -22 l-61
-10 4 -35 c5 -38 -8 -37 126 -14 88 15 106 13 106 -9 0 -40 10 -50 42 -44 34
7 48 -7 48 -49 0 -21 -5 -28 -19 -28 -41 0 -52 -11 -45 -46 5 -29 3 -34 -17
-39 -55 -12 -275 -43 -281 -38 -5 2 -8 19 -8 38 0 39 -6 36 168 62 l124 17 -6
30 c-4 16 -8 32 -11 34 -2 3 -51 -2 -107 -11 -110 -17 -118 -15 -118 31 0 21
-4 23 -37 20 -34 -3 -37 -1 -46 31 -9 38 1 51 42 51 22 0 23 3 18 39 l-5 39
122 20 c178 29 182 29 190 -10z m-6414 -23 c95 -14 176 -25 181 -25 14 0 11
-70 -4 -76 -7 -2 -73 4 -147 15 -73 11 -137 18 -142 15 -4 -3 -8 -18 -8 -34 0
-32 -11 -28 143 -51 l77 -12 -6 -36 c-4 -20 -8 -37 -9 -39 -1 -1 -48 4 -103
13 -56 8 -106 15 -111 15 -5 0 -11 -16 -13 -35 -2 -19 -1 -35 3 -35 21 0 283
-41 287 -45 2 -2 1 -20 -2 -40 -6 -31 -10 -36 -29 -32 -12 3 -98 16 -190 28
-159 22 -168 24 -163 44 2 11 15 95 27 188 13 92 26 167 30 167 4 0 84 -11
179 -25z m-1934 -44 c1257 -299 2557 -482 3903 -551 241 -13 1090 -30 1206
-24 44 2 215 6 380 9 1428 25 3012 233 4479 587 173 41 185 41 186 1 0 -14
-15 -19 -310 -88 -646 -153 -1422 -295 -2070 -379 -615 -81 -1215 -134 -1890
-168 -336 -17 -1559 -17 -1890 0 -237 12 -633 37 -755 47 -1114 92 -2145 253
-3210 501 -154 36 -285 67 -291 69 -12 4 -7 55 5 55 4 0 119 -27 257 -59z
m7907 2 c8 -45 3 -48 -76 -57 -33 -3 -62 -8 -64 -9 -1 -2 6 -68 17 -147 11
-79 19 -144 17 -146 -1 -1 -18 -5 -39 -9 -44 -8 -41 -16 -64 163 -14 113 -19
132 -33 128 -9 -3 -42 -8 -73 -11 l-57 -7 -7 36 c-3 20 -5 38 -3 40 2 2 85 15
184 29 99 13 183 25 186 26 4 0 9 -16 12 -36z m-443 -62 c0 -45 8 -42 -177
-62 l-113 -12 0 -35 0 -35 68 7 c37 4 88 9 113 12 l47 6 4 -36 c2 -21 1 -39
-2 -41 -3 -2 -54 -9 -112 -16 l-107 -12 6 -31 c3 -17 7 -33 9 -35 2 -2 67 4
144 14 78 9 143 15 145 13 9 -11 14 -78 5 -78 -5 0 -90 -9 -187 -20 -119 -14
-179 -17 -183 -10 -8 12 -45 359 -39 364 3 3 309 41 362 45 13 1 17 -7 17 -38z
m-4777 8 l109 -12 -7 -36 c-4 -20 -8 -37 -10 -39 -2 -2 -64 4 -139 12 -74 9
-139 16 -145 16 -5 0 -11 -15 -13 -32 -3 -29 -7 -33 -37 -36 -43 -4 -53 6 -45
46 6 29 10 32 45 32 38 0 39 1 39 36 l0 37 48 -6 c26 -4 96 -12 155 -18z m410
-40 l137 -12 0 -39 0 -40 -77 4 -78 3 -13 -145 c-7 -79 -15 -146 -16 -148 -2
-2 -21 0 -41 4 l-38 7 7 81 c4 44 9 111 13 147 l6 66 -69 8 c-38 4 -72 9 -75
10 -3 2 -3 20 -1 41 l4 36 52 -5 c28 -3 113 -11 189 -18z m3927 -18 l0 -38
-57 -7 c-32 -3 -100 -9 -151 -12 -89 -7 -93 -8 -88 -28 3 -12 6 -27 6 -34 0
-11 24 -13 113 -10 l112 3 0 -35 0 -35 -107 -9 -108 -8 0 -36 0 -35 88 7 c48
3 115 9 148 12 l61 6 7 -37 c4 -20 6 -38 4 -40 -7 -6 -371 -35 -376 -30 -5 5
-42 367 -38 371 2 3 314 31 354 33 31 1 32 0 32 -38z m-3473 -17 c51 -6 52 -7
55 -43 3 -33 6 -36 36 -39 36 -4 38 -14 26 -105 -6 -44 -8 -46 -43 -49 -33 -3
-36 -6 -39 -35 -3 -31 -2 -33 31 -33 42 0 44 -2 39 -45 -4 -33 -6 -35 -43 -35
-39 0 -39 0 -39 39 l0 39 -101 7 c-109 8 -119 4 -119 -42 0 -20 -5 -23 -41
-23 l-42 0 6 78 c4 42 9 128 13 191 l7 113 101 -6 c56 -4 124 -9 153 -12z
m3024 -1 c0 -10 6 -96 12 -190 l12 -173 -41 0 -42 0 -7 111 -7 110 -32 -3
c-28 -3 -31 -6 -31 -38 0 -32 -3 -35 -35 -40 -46 -8 -50 -5 -50 36 0 34 -1 35
-32 32 l-33 -3 3 -95 c2 -52 6 -102 8 -111 4 -13 -4 -18 -37 -21 -23 -2 -43 1
-44 7 -7 20 -27 356 -22 361 2 3 21 8 41 11 33 5 36 4 36 -20 0 -47 9 -56 46
-50 33 5 34 5 34 -29 0 -43 3 -46 40 -40 26 4 30 8 30 37 0 34 13 45 51 45 15
0 19 7 19 34 0 37 9 44 53 45 19 1 27 -4 28 -16z m-2527 -65 c-1 -38 -1 -38
37 -38 l39 0 -6 -142 c-3 -79 -7 -149 -10 -155 -4 -14 -41 -17 -68 -7 -10 4
-16 18 -16 39 0 32 0 32 -61 39 -34 3 -82 6 -105 6 -44 0 -44 0 -44 -35 0 -35
0 -35 -44 -35 l-45 0 5 128 c7 173 7 172 49 172 33 0 35 2 35 33 0 19 2 36 4
38 2 2 55 2 118 -1 l113 -5 -1 -37z m1860 -10 c11 -96 11 -97 -35 -104 -40 -7
-41 -7 -34 -40 l6 -34 -42 0 -42 0 6 -74 c6 -81 3 -86 -54 -86 l-29 0 0 75 0
75 -40 0 c-39 0 -40 1 -40 34 0 33 -2 35 -37 38 l-38 3 -3 78 -3 77 39 0 c39
0 39 0 46 -46 3 -26 6 -60 6 -75 0 -26 3 -29 35 -29 28 0 35 -4 35 -19 0 -36
12 -51 40 -51 26 0 29 4 32 38 3 34 6 37 36 40 l32 3 0 75 0 74 39 0 38 0 7
-52z m-1476 35 c139 -6 142 -7 142 -29 0 -49 -8 -54 -86 -54 l-74 0 0 -145 0
-145 -43 0 -44 0 5 150 5 150 -77 0 -76 0 0 40 0 40 53 0 c28 0 116 -3 195 -7z
m582 -43 l0 -40 -150 0 -150 0 0 -35 0 -34 113 -3 112 -3 3 -37 3 -38 -115 0
-116 0 0 -35 0 -35 150 0 150 0 0 -40 0 -40 -190 0 -190 0 0 190 0 190 190 0
190 0 0 -40z m448 3 l-3 -38 -147 -3 -148 -3 0 -109 0 -110 110 0 110 0 0 35
0 35 -74 0 -74 0 -4 40 -4 40 118 0 118 0 0 -115 0 -115 -155 0 -155 0 0 35
c0 33 -2 35 -35 35 l-35 0 0 48 c0 26 -3 77 -7 115 l-6 67 42 0 41 0 0 40 0
40 156 0 155 0 -3 -37z m-2808 8 c45 -6 45 -7 42 -43 -3 -35 -2 -37 30 -40 30
-3 33 -6 36 -40 l3 -38 -40 0 c-36 0 -41 -3 -41 -22 0 -49 -6 -51 -153 -34
-75 9 -141 16 -147 16 -5 0 -10 18 -10 40 0 25 5 40 13 40 6 0 70 -7 141 -15
72 -9 136 -13 143 -11 7 3 13 18 13 34 0 32 6 30 -157 48 -63 7 -63 7 -63 39
0 17 3 35 7 39 7 7 82 1 183 -13z"/>
<path d="M3938 6416 c-41 -31 -84 -83 -76 -91 2 -2 32 26 67 61 35 35 61 64
59 64 -3 0 -25 -15 -50 -34z"/>
<path d="M3997 4420 c-32 -32 -82 -71 -112 -86 -30 -14 -55 -28 -55 -29 0 -2
16 1 35 5 50 11 121 55 148 93 23 30 51 78 45 76 -2 0 -29 -27 -61 -59z"/>
<path d="M5156 5265 c-44 -23 -126 -121 -193 -231 -58 -95 -45 -99 17 -4 35
53 98 130 142 173 80 78 86 89 34 62z"/>
<path d="M4709 5007 c-5 -9 -29 -271 -25 -274 2 -2 13 25 25 59 23 65 28 78
55 140 9 20 16 40 16 45 0 8 -68 36 -71 30z"/>
<path d="M5312 4930 c0 -14 2 -19 5 -12 2 6 2 18 0 25 -3 6 -5 1 -5 -13z"/>
<path d="M5291 4844 c0 -11 3 -14 6 -6 3 7 2 16 -1 19 -3 4 -6 -2 -5 -13z"/>
<path d="M9241 5601 c-56 -97 -118 -179 -195 -258 -47 -49 -58 -65 -48 -75 18
-18 72 38 144 146 62 95 153 255 147 260 -2 2 -24 -31 -48 -73z"/>
<path d="M8385 4299 c-4 -6 -29 -9 -57 -8 -49 3 -51 2 -69 -33 -20 -38 -64
-197 -73 -263 -26 -181 -35 -278 -31 -334 2 -36 7 -102 10 -146 5 -86 8 -102
26 -180 25 -103 70 -178 115 -189 39 -10 125 19 161 54 146 143 210 561 132
867 -28 110 -61 167 -121 208 -54 36 -82 43 -93 24z"/>
<path d="M8125 3890 c-3 -5 -8 -43 -10 -82 l-4 -73 9 68 c5 38 11 75 14 83 6
16 0 19 -9 4z"/>
<path d="M10574 5563 c-6 -20 -71 -196 -84 -228 -34 -84 -50 -130 -50 -141 0
-12 66 -32 75 -22 3 2 18 85 35 184 16 98 33 189 36 202 7 26 -4 30 -12 5z"/>
<path d="M10194 4569 c-16 -17 -44 -40 -62 -51 -18 -11 -31 -23 -28 -25 9 -9
70 35 99 72 34 43 31 45 -9 4z"/>
<path d="M10133 4091 c-45 -35 -98 -94 -118 -131 -4 -8 16 8 46 36 30 28 73
65 97 83 40 31 53 51 33 51 -5 0 -31 -17 -58 -39z"/>
<path d="M10114 3873 c-31 -47 -84 -155 -84 -171 0 -25 23 2 54 65 55 112 71
167 30 106z"/>
<path d="M10265 3623 c-22 -36 -62 -85 -89 -109 -31 -28 -42 -44 -32 -44 27 0
109 90 139 153 16 33 27 60 25 62 -2 1 -21 -26 -43 -62z"/>
<path d="M6375 5374 c-43 -22 -111 -80 -137 -117 -17 -25 -8 -19 37 22 33 30
80 67 104 83 48 30 45 38 -4 12z"/>
<path d="M6539 5274 c-11 -27 -34 -83 -51 -124 -16 -41 -38 -94 -49 -117 -10
-23 -19 -46 -19 -52 0 -13 69 -26 79 -15 4 5 13 41 20 79 15 85 27 148 42 216
15 67 4 73 -22 13z"/>
<path d="M6307 5128 c-25 -35 -61 -95 -81 -135 -37 -75 -88 -203 -81 -203 12
0 93 138 145 245 85 178 88 193 17 93z"/>
<path d="M6858 4586 c-60 -61 -108 -112 -108 -113 0 -4 33 8 58 20 25 12 105
109 140 170 12 20 20 37 19 36 -1 -1 -50 -51 -109 -113z"/>
<path d="M6272 4582 c-74 -73 -79 -81 -44 -63 38 19 85 66 118 117 9 13 15 26
13 27 -2 1 -41 -35 -87 -81z"/>
<path d="M7711 4854 c0 -11 3 -14 6 -6 3 7 2 16 -1 19 -3 4 -6 -2 -5 -13z"/>
<path d="M8202 4666 c-19 -28 -40 -46 -117 -101 -19 -14 -19 -14 6 -15 40 0
92 40 118 93 28 57 25 69 -7 23z"/>
<path d="M7655 4570 c-21 -21 -55 -47 -74 -57 -33 -16 -34 -18 -13 -21 29 -4
91 37 127 84 37 48 9 44 -40 -6z"/>
<path d="M7576 3930 c-22 -56 -19 -65 5 -11 11 24 18 46 15 48 -2 2 -11 -14
-20 -37z"/>
<path d="M7280 3734 c0 -6 7 -19 16 -30 14 -18 14 -18 3 6 -14 31 -19 36 -19
24z"/>
<path d="M6347 3376 c-4 -27 -6 -67 -6 -90 1 -28 4 -18 10 34 10 85 7 131 -4
56z"/>
<path d="M5251 3604 c0 -11 3 -14 6 -6 3 7 2 16 -1 19 -3 4 -6 -2 -5 -13z"/>
<path d="M5782 3408 c-30 -85 -27 -99 4 -19 13 36 23 69 21 74 -1 5 -13 -20
-25 -55z"/>
<path d="M5321 3359 c-1 -18 20 -82 25 -77 2 2 -3 24 -11 48 -7 25 -14 38 -14
29z"/>
<path d="M3431 1409 c-6 -40 -10 -73 -9 -74 8 -6 202 -33 209 -30 4 3 10 32
14 65 4 33 8 63 8 67 1 4 -32 13 -73 20 -41 7 -89 15 -106 18 l-31 5 -12 -71z"/>
<path d="M5440 1201 c0 -20 -3 -52 -6 -72 l-6 -37 106 -7 c59 -4 108 -6 110
-4 2 2 6 34 9 71 l6 67 -42 5 c-23 3 -72 7 -109 9 l-68 5 0 -37z"/>
<path d="M5886 1136 c-4 -38 -5 -70 -4 -71 2 -2 51 -6 110 -10 l106 -7 4 72
c2 43 -1 74 -7 76 -5 2 -53 4 -106 6 l-97 3 -6 -69z"/>
</g>
</svg>
